<svg xmlns="http://www.w3.org/2000/svg" viewBox="0 0 800 600" width="800" height="600">
  <style>
    .server { fill: #f0f0f0; stroke: #8a2be2; stroke-width: 2; }
    .server-light { fill: #ff69b4; }
    .server-panel { fill: #e0e0e0; stroke: #8a2be2; stroke-width: 1; }
    .server-button { fill: #9370db; }
    .server-vent { fill: #d0d0d0; stroke: #8a2be2; stroke-width: 1; }
    .cloud { fill: #f8f8f8; stroke: #8a2be2; stroke-width: 2; opacity: 0.8; }
    .connection { stroke: #8a2be2; stroke-width: 2; stroke-dasharray: 5,5; }
    .data-packet { fill: #ff69b4; }
    .glow { filter: url(#glow); }
    @keyframes float {
      0%, 100% { transform: translateY(0); }
      50% { transform: translateY(-10px); }
    }
    @keyframes pulse {
      0%, 100% { opacity: 0.5; }
      50% { opacity: 1; }
    }
    @keyframes move {
      0% { transform: translateX(0); }
      100% { transform: translateX(50px); }
    }
    .float { animation: float 6s ease-in-out infinite; }
    .pulse { animation: pulse 2s ease-in-out infinite; }
    .move { animation: move 3s linear infinite; }
  </style>
  <defs>
    <filter id="glow" x="-20%" y="-20%" width="140%" height="140%">
      <feGaussianBlur stdDeviation="5" result="blur" />
      <feComposite in="SourceGraphic" in2="blur" operator="over" />
    </filter>
    <linearGradient id="serverGradient" x1="0%" y1="0%" x2="100%" y2="100%">
      <stop offset="0%" stop-color="#8a2be2" />
      <stop offset="100%" stop-color="#ff69b4" />
    </linearGradient>
  </defs>
  
  <!-- Server Rack -->
  <g class="float">
    <rect x="300" y="200" width="200" height="300" rx="5" class="server" />
    
    <!-- Server Units -->
    <rect x="310" y="220" width="180" height="40" rx="3" class="server-panel" />
    <rect x="320" y="230" width="10" height="20" rx="2" class="server-button pulse" />
    <rect x="340" y="230" width="10" height="20" rx="2" class="server-button" />
    <circle cx="370" cy="240" r="5" class="server-light pulse" />
    <rect x="390" y="230" width="90" height="20" rx="2" class="server-vent" />
    
    <rect x="310" y="270" width="180" height="40" rx="3" class="server-panel" />
    <rect x="320" y="280" width="10" height="20" rx="2" class="server-button" />
    <rect x="340" y="280" width="10" height="20" rx="2" class="server-button pulse" />
    <circle cx="370" cy="290" r="5" class="server-light pulse" />
    <rect x="390" y="280" width="90" height="20" rx="2" class="server-vent" />
    
    <rect x="310" y="320" width="180" height="40" rx="3" class="server-panel" />
    <rect x="320" y="330" width="10" height="20" rx="2" class="server-button pulse" />
    <rect x="340" y="330" width="10" height="20" rx="2" class="server-button" />
    <circle cx="370" cy="340" r="5" class="server-light pulse" />
    <rect x="390" y="330" width="90" height="20" rx="2" class="server-vent" />
    
    <rect x="310" y="370" width="180" height="40" rx="3" class="server-panel" />
    <rect x="320" y="380" width="10" height="20" rx="2" class="server-button" />
    <rect x="340" y="380" width="10" height="20" rx="2" class="server-button pulse" />
    <circle cx="370" cy="390" r="5" class="server-light pulse" />
    <rect x="390" y="380" width="90" height="20" rx="2" class="server-vent" />
    
    <rect x="310" y="420" width="180" height="40" rx="3" class="server-panel" />
    <rect x="320" y="430" width="10" height="20" rx="2" class="server-button pulse" />
    <rect x="340" y="430" width="10" height="20" rx="2" class="server-button" />
    <circle cx="370" cy="440" r="5" class="server-light pulse" />
    <rect x="390" y="430" width="90" height="20" rx="2" class="server-vent" />
  </g>
  
  <!-- Cloud -->
  <g class="float" style="animation-delay: -2s;">
    <path d="M600,150 C630,120 680,130 690,160 C720,150 750,170 740,200 C760,220 750,260 720,270 C710,290 680,300 650,280 C630,300 590,290 580,260 C550,260 540,230 560,210 C550,180 570,150 600,150 Z" class="cloud" />
    <text x="660" y="230" text-anchor="middle" font-family="Arial" font-size="16" fill="#8a2be2">Cloud</text>
  </g>
  
  <!-- Cloud -->
  <g class="float" style="animation-delay: -4s;">
    <path d="M200,180 C230,150 280,160 290,190 C320,180 350,200 340,230 C360,250 350,290 320,300 C310,320 280,330 250,310 C230,330 190,320 180,290 C150,290 140,260 160,240 C150,210 170,180 200,180 Z" class="cloud" />
    <text x="260" y="260" text-anchor="middle" font-family="Arial" font-size="16" fill="#8a2be2">Cloud</text>
  </g>
  
  <!-- Connections -->
  <line x1="260" y1="290" x2="300" y2="320" class="connection" />
  <line x1="660" y1="270" x2="500" y2="320" class="connection" />
  
  <!-- Data Packets -->
  <circle cx="280" cy="305" r="5" class="data-packet move" />
  <circle cx="580" cy="295" r="5" class="data-packet move" style="animation-delay: -1.5s;" />
  
  <!-- Glow Effect -->
  <circle cx="400" cy="350" r="180" fill="url(#serverGradient)" opacity="0.1" class="glow" />
</svg>