<svg xmlns="http://www.w3.org/2000/svg" viewBox="0 0 800 600" width="800" height="600">
  <style>
    .backup-server { fill: #f0f0f0; stroke: #8a2be2; stroke-width: 2; }
    .backup-light { fill: #ff69b4; }
    .backup-panel { fill: #e0e0e0; stroke: #8a2be2; stroke-width: 1; }
    .backup-button { fill: #9370db; }
    .backup-disk { fill: #d0d0d0; stroke: #8a2be2; stroke-width: 1; }
    .backup-disk-center { fill: #9370db; }
    .backup-arrow { fill: none; stroke: #8a2be2; stroke-width: 3; }
    .backup-data { fill: #ff69b4; opacity: 0.8; }
    .backup-cloud { fill: #f8f8f8; stroke: #8a2be2; stroke-width: 2; opacity: 0.8; }
    .glow { filter: url(#glow); }
    @keyframes float {
      0%, 100% { transform: translateY(0); }
      50% { transform: translateY(-10px); }
    }
    @keyframes pulse {
      0%, 100% { opacity: 0.5; }
      50% { opacity: 1; }
    }
    @keyframes rotate {
      0% { transform: rotate(0deg); }
      100% { transform: rotate(360deg); }
    }
    @keyframes move-data {
      0% { transform: translateY(0) scale(1); opacity: 1; }
      100% { transform: translateY(-150px) scale(0.5); opacity: 0.5; }
    }
    .float { animation: float 6s ease-in-out infinite; }
    .pulse { animation: pulse 2s ease-in-out infinite; }
    .rotate { animation: rotate 10s linear infinite; }
    .move-data { animation: move-data 3s ease-out infinite; }
  </style>
  <defs>
    <filter id="glow" x="-20%" y="-20%" width="140%" height="140%">
      <feGaussianBlur stdDeviation="5" result="blur" />
      <feComposite in="SourceGraphic" in2="blur" operator="over" />
    </filter>
    <linearGradient id="backupGradient" x1="0%" y1="0%" x2="100%" y2="100%">
      <stop offset="0%" stop-color="#8a2be2" />
      <stop offset="100%" stop-color="#ff69b4" />
    </linearGradient>
  </defs>
  
  <!-- Main Server -->
  <g class="float">
    <rect x="200" y="300" width="150" height="200" rx="5" class="backup-server" />
    
    <!-- Server Units -->
    <rect x="210" y="320" width="130" height="30" rx="3" class="backup-panel" />
    <rect x="220" y="325" width="8" height="20" rx="2" class="backup-button pulse" />
    <rect x="235" y="325" width="8" height="20" rx="2" class="backup-button" />
    <circle cx="255" cy="335" r="4" class="backup-light pulse" />
    <rect x="270" y="325" width="60" height="20" rx="2" class="backup-disk" />
    
    <rect x="210" y="360" width="130" height="30" rx="3" class="backup-panel" />
    <rect x="220" y="365" width="8" height="20" rx="2" class="backup-button" />
    <rect x="235" y="365" width="8" height="20" rx="2" class="backup-button pulse" />
    <circle cx="255" cy="375" r="4" class="backup-light pulse" />
    <rect x="270" y="365" width="60" height="20" rx="2" class="backup-disk" />
    
    <rect x="210" y="400" width="130" height="30" rx="3" class="backup-panel" />
    <rect x="220" y="405" width="8" height="20" rx="2" class="backup-button pulse" />
    <rect x="235" y="405" width="8" height="20" rx="2" class="backup-button" />
    <circle cx="255" cy="415" r="4" class="backup-light pulse" />
    <rect x="270" y="405" width="60" height="20" rx="2" class="backup-disk" />
    
    <rect x="210" y="440" width="130" height="30" rx="3" class="backup-panel" />
    <rect x="220" y="445" width="8" height="20" rx="2" class="backup-button" />
    <rect x="235" y="445" width="8" height="20" rx="2" class="backup-button pulse" />
    <circle cx="255" cy="455" r="4" class="backup-light pulse" />
    <rect x="270" y="445" width="60" height="20" rx="2" class="backup-disk" />
  </g>
  
  <!-- Backup Storage -->
  <g class="float" style="animation-delay: -3s;">
    <rect x="450" y="300" width="150" height="200" rx="5" class="backup-server" />
    
    <!-- Backup Disks -->
    <circle cx="525" cy="340" r="40" class="backup-disk rotate" />
    <circle cx="525" cy="340" r="15" class="backup-disk-center" />
    <circle cx="525" cy="340" r="5" fill="#fff" />
    
    <circle cx="525" cy="430" r="40" class="backup-disk rotate" style="animation-delay: -5s;" />
    <circle cx="525" cy="430" r="15" class="backup-disk-center" />
    <circle cx="525" cy="430" r="5" fill="#fff" />
    
    <text x="525" y="385" text-anchor="middle" font-family="Arial" font-size="14" fill="#8a2be2">Backup Storage</text>
  </g>
  
  <!-- Cloud Storage -->
  <g class="float" style="animation-delay: -1.5s;">
    <path d="M600,150 C630,120 680,130 690,160 C720,150 750,170 740,200 C760,220 750,260 720,270 C710,290 680,300 650,280 C630,300 590,290 580,260 C550,260 540,230 560,210 C550,180 570,150 600,150 Z" class="backup-cloud" />
    <text x="660" y="230" text-anchor="middle" font-family="Arial" font-size="16" fill="#8a2be2">Cloud Backup</text>
  </g>
  
  <!-- Data Transfer Arrows -->
  <path d="M350,380 C380,380 420,380 450,380" class="backup-arrow" marker-end="url(#arrowhead)" />
  <path d="M525,280 C525,250 600,200 660,200" class="backup-arrow" marker-end="url(#arrowhead)" />
  
  <defs>
    <marker id="arrowhead" markerWidth="10" markerHeight="7" refX="9" refY="3.5" orient="auto">
      <polygon points="0 0, 10 3.5, 0 7" fill="#8a2be2" />
    </marker>
  </defs>
  
  <!-- Data Packets -->
  <g class="move-data" style="transform-origin: 350px 380px;">
    <rect x="370" y="370" width="20" height="20" rx="3" class="backup-data" />
  </g>
  <g class="move-data" style="animation-delay: -1s; transform-origin: 350px 380px;">
    <rect x="390" y="370" width="20" height="20" rx="3" class="backup-data" />
  </g>
  <g class="move-data" style="animation-delay: -2s; transform-origin: 350px 380px;">
    <rect x="410" y="370" width="20" height="20" rx="3" class="backup-data" />
  </g>
  
  <g class="move-data" style="transform-origin: 525px 280px;">
    <rect x="550" y="250" width="15" height="15" rx="3" class="backup-data" />
  </g>
  <g class="move-data" style="animation-delay: -1.2s; transform-origin: 525px 280px;">
    <rect x="570" y="230" width="15" height="15" rx="3" class="backup-data" />
  </g>
  <g class="move-data" style="animation-delay: -2.4s; transform-origin: 525px 280px;">
    <rect x="590" y="210" width="15" height="15" rx="3" class="backup-data" />
  </g>
  
  <!-- Glow Effect -->
  <circle cx="400" cy="350" r="250" fill="url(#backupGradient)" opacity="0.1" class="glow" />
</svg>